<?xml version="1.0" encoding="UTF-8"?>
<svg xmlns="http://www.w3.org/2000/svg" xmlns:xlink="http://www.w3.org/1999/xlink" width="18px" height="18px" viewBox="0 0 18 18" version="1.1">
<g id="surface1">
<path style=" stroke:none;fill-rule:nonzero;fill:rgb(78.431373%,80%,86.27451%);fill-opacity:1;" d="M 11.730469 9.570312 C 12.804688 8.75 13.5 7.457031 13.5 6 C 13.5 3.515625 11.484375 1.5 9 1.5 C 6.515625 1.5 4.5 3.515625 4.5 6 C 4.5 7.457031 5.195312 8.75 6.269531 9.570312 C 3.691406 10.699219 1.875 13.375 1.875 16.5 L 16.125 16.5 C 16.125 13.375 14.308594 10.699219 11.730469 9.570312 Z M 6 6 C 6 4.347656 7.347656 3 9 3 C 10.652344 3 12 4.347656 12 6 C 12 7.652344 10.652344 9 9 9 C 7.347656 9 6 7.652344 6 6 Z M 9 10.5 C 11.617188 10.5 13.820312 12.414062 14.445312 15 L 3.554688 15 C 4.179688 12.414062 6.382812 10.5 9 10.5 Z M 9 10.5 "/>
</g>
</svg>
