<?xml version="1.0" encoding="UTF-8"?>
<svg xmlns="http://www.w3.org/2000/svg" xmlns:xlink="http://www.w3.org/1999/xlink" width="64px" height="41px" viewBox="0 0 64 41" version="1.1">
<g id="surface1">
<path style=" stroke:none;fill-rule:nonzero;fill:rgb(76.470588%,80%,87.45098%);fill-opacity:1;" d="M 25.898438 33.46875 C 25.636719 32.621094 24.863281 32.050781 23.988281 32.050781 L 13.773438 32.050781 C 12.902344 32.050781 12.128906 32.621094 11.863281 33.46875 L 10.195312 38.828125 C 9.929688 39.675781 9.15625 40.246094 8.285156 40.246094 L 2.449219 40.246094 C 1.050781 40.246094 0.0820312 38.828125 0.578125 37.5 L 13.984375 1.511719 C 14.277344 0.722656 15.023438 0.199219 15.851562 0.199219 L 21.914062 0.199219 C 22.742188 0.199219 23.484375 0.722656 23.78125 1.507812 L 37.277344 37.492188 C 37.773438 38.820312 36.808594 40.246094 35.410156 40.246094 L 29.476562 40.246094 C 28.605469 40.246094 27.832031 39.675781 27.570312 38.828125 Z M 14.738281 24.257812 C 14.574219 24.78125 14.957031 25.3125 15.496094 25.3125 L 22.234375 25.3125 C 22.773438 25.3125 23.15625 24.78125 22.996094 24.257812 L 19.628906 13.476562 C 19.394531 12.722656 18.339844 12.722656 18.101562 13.476562 Z M 14.738281 24.257812 "/>
<path style=" stroke:none;fill-rule:nonzero;fill:rgb(76.470588%,80%,87.45098%);fill-opacity:1;" d="M 56.0625 40.246094 C 55.714844 40.246094 55.457031 40.199219 55.320312 39.878906 C 55.003906 39.152344 53.984375 38.738281 53.34375 39.199219 C 51.878906 40.265625 50.085938 40.800781 47.960938 40.800781 C 44.984375 40.800781 42.515625 39.972656 40.550781 38.324219 C 38.605469 36.671875 37.636719 34.535156 37.636719 31.914062 C 37.636719 28.792969 38.8125 26.382812 41.175781 24.679688 C 43.558594 22.972656 46.976562 22.101562 51.4375 22.066406 L 52.253906 22.066406 C 53.363281 22.066406 54.253906 21.15625 54.253906 20.035156 L 54.253906 19.671875 C 54.253906 18.335938 53.984375 17.390625 53.4375 16.835938 C 52.890625 16.289062 52.089844 16.015625 51.042969 16.015625 C 49.535156 16.015625 48.515625 16.5 47.988281 17.460938 C 47.453125 18.445312 46.667969 19.425781 45.566406 19.425781 L 40.289062 19.425781 C 39.179688 19.425781 38.257812 18.503906 38.527344 17.414062 C 38.996094 15.550781 40.136719 13.957031 41.960938 12.632812 C 44.429688 10.832031 47.546875 9.9375 51.304688 9.9375 C 55.195312 9.9375 58.199219 10.789062 60.320312 12.492188 C 62.460938 14.183594 63.535156 16.601562 63.535156 19.757812 L 63.535156 33.753906 C 63.578125 36.320312 63.535156 38.222656 63.535156 39.78125 C 63.535156 40.035156 63.332031 40.246094 63.074219 40.246094 Z M 50.027344 34.6875 C 51.054688 34.6875 51.925781 34.515625 52.648438 34.167969 C 53.109375 33.945312 53.496094 33.699219 53.804688 33.421875 C 54.128906 33.136719 54.253906 32.695312 54.253906 32.257812 L 54.253906 28.769531 C 54.253906 27.648438 53.363281 26.738281 52.253906 26.738281 L 52.027344 26.738281 C 50.453125 26.738281 49.207031 27.164062 48.289062 28.003906 C 47.394531 28.851562 46.945312 29.980469 46.945312 31.386719 C 46.945312 33.589844 47.96875 34.6875 50.027344 34.6875 Z M 50.027344 34.6875 "/>
</g>
</svg>
