<?xml version="1.0" encoding="UTF-8"?>
<svg xmlns="http://www.w3.org/2000/svg" xmlns:xlink="http://www.w3.org/1999/xlink" width="64px" height="34px" viewBox="0 0 64 34" version="1.1">
<g id="surface1">
<path style=" stroke:none;fill-rule:nonzero;fill:rgb(76.470588%,80%,87.45098%);fill-opacity:1;" d="M 22 28.207031 C 21.777344 27.492188 21.117188 27.007812 20.375 27.007812 L 11.667969 27.007812 C 10.921875 27.007812 10.265625 27.492188 10.039062 28.207031 L 8.613281 32.753906 C 8.390625 33.46875 7.730469 33.957031 6.988281 33.957031 L 2.007812 33.957031 C 0.820312 33.957031 -0.0078125 32.75 0.417969 31.625 L 11.84375 1.113281 C 12.09375 0.445312 12.730469 0 13.4375 0 L 18.605469 0 C 19.3125 0 19.945312 0.445312 20.199219 1.113281 L 31.703125 31.621094 C 32.125 32.746094 31.300781 33.957031 30.109375 33.957031 L 25.054688 33.957031 C 24.308594 33.957031 23.652344 33.46875 23.425781 32.753906 Z M 12.488281 20.398438 C 12.347656 20.839844 12.675781 21.292969 13.136719 21.292969 L 18.875 21.292969 C 19.339844 21.292969 19.664062 20.839844 19.527344 20.398438 L 16.65625 11.257812 C 16.453125 10.617188 15.558594 10.617188 15.355469 11.257812 Z M 12.488281 20.398438 "/>
<path style=" stroke:none;fill-rule:nonzero;fill:rgb(76.470588%,80%,87.45098%);fill-opacity:1;" d="M 53.882812 28.25 C 53.65625 27.535156 53 27.050781 52.253906 27.050781 L 43.546875 27.050781 C 42.804688 27.050781 42.144531 27.535156 41.917969 28.25 L 40.496094 32.796875 C 40.269531 33.515625 39.609375 34 38.867188 34 L 33.890625 34 C 32.699219 34 31.875 32.796875 32.296875 31.667969 L 43.722656 1.160156 C 43.976562 0.488281 44.609375 0.0429688 45.320312 0.0429688 L 50.484375 0.0429688 C 51.191406 0.0429688 51.824219 0.488281 52.078125 1.15625 L 63.582031 31.667969 C 64.007812 32.792969 63.179688 34 61.988281 34 L 56.933594 34 C 56.191406 34 55.53125 33.515625 55.308594 32.796875 Z M 44.367188 20.441406 C 44.226562 20.886719 44.554688 21.335938 45.015625 21.335938 L 50.753906 21.335938 C 51.21875 21.335938 51.546875 20.886719 51.40625 20.441406 L 48.535156 11.304688 C 48.335938 10.664062 47.4375 10.664062 47.234375 11.304688 Z M 44.367188 20.441406 "/>
</g>
</svg>
