<?xml version="1.0" encoding="UTF-8"?>
<svg xmlns="http://www.w3.org/2000/svg" xmlns:xlink="http://www.w3.org/1999/xlink" width="64px" height="37px" viewBox="0 0 60 37" version="1.1">
<g id="surface1">
<path style=" stroke:none;fill-rule:nonzero;fill:rgb(76.470588%,80%,87.45098%);fill-opacity:1;" d="M 51.503906 35.234375 C 51.109375 35.234375 50.820312 35.179688 50.660156 34.820312 C 50.300781 34.003906 49.140625 33.542969 48.417969 34.058594 C 46.757812 35.25 44.722656 35.847656 42.3125 35.847656 C 38.945312 35.847656 36.144531 34.921875 33.914062 33.078125 C 31.707031 31.226562 30.601562 28.835938 30.601562 25.898438 C 30.601562 22.410156 31.945312 19.710938 34.621094 17.800781 C 37.320312 15.890625 41.203125 14.917969 46.253906 14.878906 L 47.1875 14.878906 C 48.4375 14.878906 49.453125 13.859375 49.453125 12.605469 L 49.453125 12.195312 C 49.453125 10.695312 49.144531 9.640625 48.523438 9.023438 C 47.90625 8.410156 47 8.097656 45.8125 8.097656 C 44.101562 8.097656 42.945312 8.640625 42.351562 9.722656 C 41.742188 10.816406 40.851562 11.917969 39.601562 11.917969 L 33.613281 11.917969 C 32.359375 11.917969 31.308594 10.886719 31.617188 9.667969 C 32.144531 7.582031 33.445312 5.792969 35.507812 4.3125 C 38.3125 2.300781 41.847656 1.292969 46.109375 1.292969 C 50.519531 1.292969 53.929688 2.25 56.335938 4.160156 C 58.761719 6.042969 59.976562 8.757812 59.976562 12.289062 L 59.976562 27.964844 C 60.027344 30.835938 59.976562 32.964844 59.976562 34.710938 C 59.976562 34.996094 59.742188 35.234375 59.457031 35.234375 Z M 44.660156 29.007812 C 45.824219 29.007812 46.8125 28.8125 47.632812 28.425781 C 48.15625 28.175781 48.59375 27.894531 48.941406 27.589844 C 49.308594 27.269531 49.453125 26.777344 49.453125 26.285156 L 49.453125 22.382812 C 49.453125 21.128906 48.4375 20.109375 47.1875 20.109375 L 46.925781 20.109375 C 45.140625 20.109375 43.730469 20.582031 42.6875 21.527344 C 41.667969 22.472656 41.160156 23.738281 41.160156 25.3125 C 41.160156 27.777344 42.328125 29.007812 44.660156 29.007812 Z M 44.660156 29.007812 "/>
<path style=" stroke:none;fill-rule:nonzero;fill:rgb(76.470588%,80%,87.45098%);fill-opacity:1;" d="M 20.902344 35.089844 C 20.507812 35.089844 20.21875 35.039062 20.058594 34.679688 C 19.699219 33.863281 18.539062 33.402344 17.816406 33.917969 C 16.15625 35.109375 14.121094 35.707031 11.710938 35.707031 C 8.34375 35.707031 5.542969 34.78125 3.3125 32.9375 C 1.105469 31.085938 0 28.695312 0 25.757812 C 0 22.269531 1.34375 19.566406 4.019531 17.660156 C 6.71875 15.75 10.601562 14.777344 15.65625 14.734375 L 16.585938 14.734375 C 17.835938 14.734375 18.851562 13.71875 18.851562 12.464844 L 18.851562 12.054688 C 18.851562 10.554688 18.542969 9.5 17.921875 8.882812 C 17.304688 8.269531 16.398438 7.957031 15.210938 7.957031 C 13.5 7.957031 12.34375 8.5 11.75 9.582031 C 11.140625 10.675781 10.25 11.777344 9 11.777344 L 3.011719 11.777344 C 1.761719 11.777344 0.707031 10.746094 1.015625 9.527344 C 1.542969 7.441406 2.84375 5.652344 4.90625 4.171875 C 7.710938 2.160156 11.246094 1.152344 15.507812 1.152344 C 19.917969 1.152344 23.328125 2.109375 25.734375 4.015625 C 28.160156 5.902344 29.375 8.617188 29.375 12.148438 L 29.375 27.824219 C 29.425781 30.695312 29.375 32.824219 29.375 34.570312 C 29.375 34.855469 29.140625 35.089844 28.855469 35.089844 Z M 14.058594 28.867188 C 15.222656 28.867188 16.210938 28.671875 17.035156 28.285156 C 17.554688 28.035156 17.992188 27.753906 18.339844 27.449219 C 18.707031 27.128906 18.851562 26.636719 18.851562 26.144531 L 18.851562 22.242188 C 18.851562 20.988281 17.835938 19.96875 16.585938 19.96875 L 16.324219 19.96875 C 14.539062 19.96875 13.128906 20.441406 12.085938 21.386719 C 11.066406 22.332031 10.558594 23.59375 10.558594 25.171875 C 10.558594 27.636719 11.726562 28.867188 14.058594 28.867188 Z M 14.058594 28.867188 "/>
</g>
</svg>
