<?xml version="1.0" encoding="UTF-8"?>
<svg xmlns="http://www.w3.org/2000/svg" xmlns:xlink="http://www.w3.org/1999/xlink" width="18px" height="18px" viewBox="0 0 18 18" version="1.1">
<g id="surface1">
<path style=" stroke:none;fill-rule:evenodd;fill:rgb(78.431373%,80%,86.27451%);fill-opacity:1;" d="M 8.957031 0.9375 L 9.042969 0.9375 C 10.777344 0.9375 12.132812 0.9375 13.191406 1.082031 C 14.273438 1.222656 15.128906 1.527344 15.800781 2.199219 C 16.472656 2.871094 16.777344 3.726562 16.917969 4.808594 C 17.0625 5.867188 17.0625 7.222656 17.0625 8.957031 L 17.0625 9.042969 C 17.0625 10.777344 17.0625 12.132812 16.917969 13.191406 C 16.777344 14.273438 16.472656 15.128906 15.800781 15.800781 C 15.128906 16.472656 14.273438 16.777344 13.191406 16.917969 C 12.132812 17.0625 10.777344 17.0625 9.042969 17.0625 L 8.957031 17.0625 C 7.222656 17.0625 5.867188 17.0625 4.808594 16.917969 C 3.726562 16.777344 2.871094 16.472656 2.199219 15.800781 C 1.527344 15.128906 1.222656 14.273438 1.082031 13.191406 C 0.9375 12.132812 0.9375 10.777344 0.9375 9.042969 L 0.9375 8.957031 C 0.9375 7.222656 0.9375 5.867188 1.082031 4.808594 C 1.222656 3.726562 1.527344 2.871094 2.199219 2.199219 C 2.871094 1.527344 3.726562 1.222656 4.808594 1.082031 C 5.867188 0.9375 7.222656 0.9375 8.957031 0.9375 Z M 4.6875 2.234375 C 3.886719 2.371094 3.378906 2.609375 2.996094 2.996094 C 2.609375 3.378906 2.371094 3.886719 2.234375 4.6875 L 4.6875 4.6875 Z M 5.8125 2.113281 L 5.8125 8.4375 L 12.1875 8.4375 L 12.1875 2.113281 C 11.34375 2.0625 10.308594 2.0625 9 2.0625 C 7.691406 2.0625 6.65625 2.0625 5.8125 2.113281 Z M 13.3125 2.234375 L 13.3125 4.6875 L 15.765625 4.6875 C 15.628906 3.886719 15.390625 3.378906 15.003906 2.996094 C 14.621094 2.609375 14.113281 2.371094 13.3125 2.234375 Z M 15.886719 5.8125 L 13.3125 5.8125 L 13.3125 8.4375 L 15.9375 8.4375 C 15.9375 7.390625 15.929688 6.535156 15.886719 5.8125 Z M 15.9375 9.5625 L 13.3125 9.5625 L 13.3125 12.1875 L 15.886719 12.1875 C 15.929688 11.464844 15.9375 10.609375 15.9375 9.5625 Z M 15.765625 13.3125 L 13.3125 13.3125 L 13.3125 15.765625 C 14.113281 15.628906 14.621094 15.390625 15.003906 15.003906 C 15.390625 14.621094 15.628906 14.113281 15.765625 13.3125 Z M 12.1875 15.886719 L 12.1875 9.5625 L 5.8125 9.5625 L 5.8125 15.886719 C 6.65625 15.9375 7.691406 15.9375 9 15.9375 C 10.308594 15.9375 11.34375 15.9375 12.1875 15.886719 Z M 4.6875 15.765625 L 4.6875 13.3125 L 2.234375 13.3125 C 2.371094 14.113281 2.609375 14.621094 2.996094 15.003906 C 3.378906 15.390625 3.886719 15.628906 4.6875 15.765625 Z M 2.113281 12.1875 L 4.6875 12.1875 L 4.6875 9.5625 L 2.0625 9.5625 C 2.0625 10.609375 2.070312 11.464844 2.113281 12.1875 Z M 2.0625 8.4375 L 4.6875 8.4375 L 4.6875 5.8125 L 2.113281 5.8125 C 2.070312 6.535156 2.0625 7.390625 2.0625 8.4375 Z M 2.0625 8.4375 "/>
</g>
</svg>
