<?xml version="1.0" encoding="UTF-8"?>
<svg xmlns="http://www.w3.org/2000/svg" xmlns:xlink="http://www.w3.org/1999/xlink" width="24px" height="24px" viewBox="0 0 24 24" version="1.1">
<g id="surface1">
<path style=" stroke:none;fill-rule:nonzero;fill:rgb(78.431373%,80%,86.27451%);fill-opacity:1;" d="M 10.667969 15.121094 C 10.0625 15.121094 9.675781 14.671875 9.644531 14.042969 C 9.644531 13.921875 9.644531 9.957031 9.644531 9.933594 C 9.675781 9.328125 10.09375 8.878906 10.667969 8.878906 C 10.84375 8.878906 11.027344 8.910156 11.175781 9 C 11.503906 9.183594 15.105469 11.128906 15.105469 11.128906 C 15.4375 11.339844 15.613281 11.640625 15.613281 11.96875 C 15.613281 12.300781 15.4375 12.597656 15.136719 12.8125 C 15.136719 12.8125 11.203125 14.9375 11.175781 14.96875 C 11.027344 15.0625 10.84375 15.121094 10.667969 15.121094 Z M 10.90625 10.261719 L 10.90625 13.652344 C 10.90625 13.683594 10.90625 13.707031 10.90625 13.707031 L 14.082031 12 C 14.082031 12 11.113281 10.378906 10.90625 10.261719 Z M 12.015625 18.359375 C 10.1875 18.359375 7.964844 18.207031 6.222656 18 C 4.722656 17.816406 3.886719 17.042969 3.644531 15.628906 C 3.464844 14.699219 3.375 13.410156 3.375 12 C 3.375 10.589844 3.464844 9.300781 3.613281 8.371094 C 3.855469 6.957031 4.691406 6.183594 6.191406 6 C 7.9375 5.792969 10.15625 5.640625 11.984375 5.640625 C 13.8125 5.640625 16.035156 5.792969 17.777344 6 C 19.277344 6.183594 20.113281 6.957031 20.355469 8.371094 C 20.503906 9.300781 20.59375 10.589844 20.59375 12 C 20.59375 13.410156 20.503906 14.699219 20.355469 15.628906 C 20.113281 17.042969 19.277344 17.816406 17.777344 18 C 16.0625 18.207031 13.84375 18.359375 12.015625 18.359375 Z M 12.015625 6.871094 C 10.246094 6.871094 8.082031 6.988281 6.40625 7.199219 C 5.296875 7.347656 4.996094 7.859375 4.875 8.578125 C 4.722656 9.480469 4.636719 10.683594 4.636719 12 C 4.636719 13.316406 4.722656 14.519531 4.875 15.390625 C 4.996094 16.109375 5.324219 16.621094 6.40625 16.769531 C 8.082031 16.980469 10.246094 17.097656 12.015625 17.097656 C 13.785156 17.097656 15.941406 16.980469 17.625 16.769531 C 18.734375 16.621094 19.035156 16.109375 19.15625 15.390625 C 19.308594 14.519531 19.394531 13.316406 19.394531 12 C 19.394531 10.683594 19.308594 9.480469 19.15625 8.609375 C 19.035156 7.890625 18.703125 7.378906 17.625 7.230469 C 15.941406 7.019531 13.785156 6.871094 12.015625 6.871094 Z M 12.015625 6.871094 "/>
</g>
</svg>
